# Blender v2.79 (sub 0) OBJ File: ''
# www.blender.org
mtllib CLetter.mtl
o Text_A
v 0.309485 0.142434 -0.166827
v 0.289158 0.142434 -0.177409
v 0.269199 0.142434 -0.186902
v 0.249542 0.142434 -0.195321
v 0.230122 0.142434 -0.202685
v 0.210871 0.142434 -0.209011
v 0.191725 0.142434 -0.214316
v 0.172616 0.142434 -0.218618
v 0.153480 0.142434 -0.221933
v 0.134251 0.142434 -0.224280
v 0.114861 0.142434 -0.225675
v 0.095246 0.142434 -0.226136
v 0.057123 0.142434 -0.223865
v 0.020931 0.142434 -0.217220
v -0.013066 0.142434 -0.206449
v -0.044606 0.142434 -0.191803
v -0.073423 0.142434 -0.173532
v -0.099254 0.142434 -0.151886
v -0.121835 0.142434 -0.127115
v -0.140902 0.142434 -0.099470
v -0.156191 0.142434 -0.069199
v -0.167439 0.142434 -0.036553
v -0.174381 0.142434 -0.001782
v -0.176754 0.142434 0.034864
v -0.174455 0.142434 0.072101
v -0.167698 0.142434 0.107174
v -0.156691 0.142434 0.139879
v -0.141643 0.142434 0.170012
v -0.122761 0.142434 0.197367
v -0.100254 0.142434 0.221739
v -0.074330 0.142434 0.242923
v -0.045198 0.142434 0.260716
v -0.013066 0.142434 0.274911
v 0.021857 0.142434 0.285304
v 0.059364 0.142434 0.291690
v 0.099246 0.142434 0.293864
v 0.118634 0.142434 0.293304
v 0.138265 0.142434 0.291632
v 0.158090 0.142434 0.288864
v 0.178061 0.142434 0.285012
v 0.198129 0.142434 0.280091
v 0.218246 0.142434 0.274114
v 0.238363 0.142434 0.267095
v 0.258431 0.142434 0.259049
v 0.278402 0.142434 0.249989
v 0.298228 0.142434 0.239929
v 0.317858 0.142434 0.228882
v 0.337246 0.142434 0.216864
v 0.337246 0.142434 0.323864
v 0.320355 0.142434 0.332397
v 0.303117 0.142434 0.340461
v 0.285434 0.142434 0.348004
v 0.267209 0.142434 0.354975
v 0.248346 0.142434 0.361320
v 0.228746 0.142434 0.366989
v 0.208313 0.142434 0.371928
v 0.186950 0.142434 0.376086
v 0.164559 0.142434 0.379411
v 0.141042 0.142434 0.381850
v 0.116304 0.142434 0.383352
v 0.090246 0.142434 0.383864
v 0.029228 0.142434 0.379905
v -0.025902 0.142434 0.368609
v -0.075254 0.142434 0.350848
v -0.118939 0.142434 0.327494
v -0.157069 0.142434 0.299417
v -0.189754 0.142434 0.267489
v -0.217106 0.142434 0.232582
v -0.239235 0.142434 0.195568
v -0.256254 0.142434 0.157317
v -0.268272 0.142434 0.118702
v -0.275402 0.142434 0.080594
v -0.277754 0.142434 0.043864
v -0.274539 0.142434 -0.006914
v -0.265120 0.142434 -0.055025
v -0.249832 0.142434 -0.100136
v -0.229013 0.142434 -0.141914
v -0.203000 0.142434 -0.180025
v -0.172129 0.142434 -0.214136
v -0.136737 0.142434 -0.243914
v -0.097161 0.142434 -0.269025
v -0.053738 0.142434 -0.289136
v -0.006805 0.142434 -0.303914
v 0.043302 0.142434 -0.313025
v 0.096246 0.142434 -0.316136
v 0.113779 0.142434 -0.315779
v 0.131427 0.142434 -0.314696
v 0.149262 0.142434 -0.312871
v 0.167357 0.142434 -0.310284
v 0.185786 0.142434 -0.306920
v 0.204621 0.142434 -0.302761
v 0.223935 0.142434 -0.297790
v 0.243802 0.142434 -0.291988
v 0.264293 0.142434 -0.285339
v 0.285482 0.142434 -0.277826
v 0.307442 0.142434 -0.269431
v 0.330246 0.142434 -0.260136
v 0.330246 0.142434 -0.155136
v 0.309485 -0.089566 -0.166827
v 0.289158 -0.089566 -0.177409
v 0.269199 -0.089566 -0.186902
v 0.249542 -0.089566 -0.195321
v 0.230122 -0.089566 -0.202685
v 0.210871 -0.089566 -0.209011
v 0.191725 -0.089566 -0.214316
v 0.172616 -0.089566 -0.218618
v 0.153480 -0.089566 -0.221933
v 0.134251 -0.089566 -0.224280
v 0.114861 -0.089566 -0.225675
v 0.095246 -0.089566 -0.226136
v 0.057123 -0.089566 -0.223865
v 0.020931 -0.089566 -0.217220
v -0.013066 -0.089566 -0.206449
v -0.044606 -0.089566 -0.191803
v -0.073423 -0.089566 -0.173532
v -0.099254 -0.089566 -0.151886
v -0.121835 -0.089566 -0.127115
v -0.140902 -0.089566 -0.099470
v -0.156191 -0.089566 -0.069199
v -0.167439 -0.089566 -0.036553
v -0.174381 -0.089566 -0.001782
v -0.176754 -0.089566 0.034864
v -0.174455 -0.089566 0.072101
v -0.167698 -0.089566 0.107174
v -0.156691 -0.089566 0.139879
v -0.141643 -0.089566 0.170012
v -0.122761 -0.089566 0.197367
v -0.100254 -0.089566 0.221739
v -0.074330 -0.089566 0.242923
v -0.045198 -0.089566 0.260716
v -0.013066 -0.089566 0.274911
v 0.021857 -0.089566 0.285304
v 0.059364 -0.089566 0.291690
v 0.099246 -0.089566 0.293864
v 0.118634 -0.089566 0.293304
v 0.138265 -0.089566 0.291632
v 0.158090 -0.089566 0.288864
v 0.178061 -0.089566 0.285012
v 0.198129 -0.089566 0.280091
v 0.218246 -0.089566 0.274114
v 0.238363 -0.089566 0.267095
v 0.258431 -0.089566 0.259049
v 0.278402 -0.089566 0.249989
v 0.298228 -0.089566 0.239929
v 0.317858 -0.089566 0.228882
v 0.337246 -0.089566 0.216864
v 0.337246 -0.089566 0.323864
v 0.320355 -0.089566 0.332397
v 0.303117 -0.089566 0.340461
v 0.285434 -0.089566 0.348004
v 0.267209 -0.089566 0.354975
v 0.248346 -0.089566 0.361320
v 0.228746 -0.089566 0.366989
v 0.208313 -0.089566 0.371928
v 0.186950 -0.089566 0.376086
v 0.164559 -0.089566 0.379411
v 0.141042 -0.089566 0.381850
v 0.116304 -0.089566 0.383352
v 0.090246 -0.089566 0.383864
v 0.029228 -0.089566 0.379905
v -0.025902 -0.089566 0.368609
v -0.075254 -0.089566 0.350848
v -0.118939 -0.089566 0.327494
v -0.157069 -0.089566 0.299417
v -0.189754 -0.089566 0.267489
v -0.217106 -0.089566 0.232582
v -0.239235 -0.089566 0.195568
v -0.256254 -0.089566 0.157317
v -0.268272 -0.089566 0.118702
v -0.275402 -0.089566 0.080594
v -0.277754 -0.089566 0.043864
v -0.274539 -0.089566 -0.006914
v -0.265120 -0.089566 -0.055025
v -0.249832 -0.089566 -0.100136
v -0.229013 -0.089566 -0.141914
v -0.203000 -0.089566 -0.180025
v -0.172129 -0.089566 -0.214136
v -0.136737 -0.089566 -0.243914
v -0.097161 -0.089566 -0.269025
v -0.053738 -0.089566 -0.289136
v -0.006805 -0.089566 -0.303914
v 0.043302 -0.089566 -0.313025
v 0.096246 -0.089566 -0.316136
v 0.113779 -0.089566 -0.315779
v 0.131427 -0.089566 -0.314696
v 0.149262 -0.089566 -0.312871
v 0.167357 -0.089566 -0.310284
v 0.185786 -0.089566 -0.306920
v 0.204621 -0.089566 -0.302761
v 0.223935 -0.089566 -0.297790
v 0.243802 -0.089566 -0.291988
v 0.264293 -0.089566 -0.285339
v 0.285482 -0.089566 -0.277826
v 0.307442 -0.089566 -0.269431
v 0.330246 -0.089566 -0.260136
v 0.330246 -0.089566 -0.155136
v 0.309485 -0.089566 -0.166827
v 0.309485 0.142434 -0.166827
v 0.289158 -0.089566 -0.177409
v 0.289158 0.142434 -0.177409
v 0.269199 -0.089566 -0.186902
v 0.269199 0.142434 -0.186902
v 0.249542 -0.089566 -0.195321
v 0.249542 0.142434 -0.195321
v 0.230122 -0.089566 -0.202685
v 0.230122 0.142434 -0.202685
v 0.210871 -0.089566 -0.209011
v 0.210871 0.142434 -0.209011
v 0.191725 -0.089566 -0.214316
v 0.191725 0.142434 -0.214316
v 0.172616 -0.089566 -0.218618
v 0.172616 0.142434 -0.218618
v 0.153480 -0.089566 -0.221933
v 0.153480 0.142434 -0.221933
v 0.134251 -0.089566 -0.224280
v 0.134251 0.142434 -0.224280
v 0.114861 -0.089566 -0.225675
v 0.114861 0.142434 -0.225675
v 0.095246 -0.089566 -0.226136
v 0.095246 0.142434 -0.226136
v 0.057123 -0.089566 -0.223865
v 0.057123 0.142434 -0.223865
v 0.020931 -0.089566 -0.217220
v 0.020931 0.142434 -0.217220
v -0.013066 -0.089566 -0.206449
v -0.013066 0.142434 -0.206449
v -0.044606 -0.089566 -0.191803
v -0.044606 0.142434 -0.191803
v -0.073423 -0.089566 -0.173532
v -0.073423 0.142434 -0.173532
v -0.099254 -0.089566 -0.151886
v -0.099254 0.142434 -0.151886
v -0.121835 -0.089566 -0.127115
v -0.121835 0.142434 -0.127115
v -0.140902 -0.089566 -0.099470
v -0.140902 0.142434 -0.099470
v -0.156191 -0.089566 -0.069199
v -0.156191 0.142434 -0.069199
v -0.167439 -0.089566 -0.036553
v -0.167439 0.142434 -0.036553
v -0.174381 -0.089566 -0.001782
v -0.174381 0.142434 -0.001782
v -0.176754 -0.089566 0.034864
v -0.176754 0.142434 0.034864
v -0.174455 -0.089566 0.072101
v -0.174455 0.142434 0.072101
v -0.167698 -0.089566 0.107174
v -0.167698 0.142434 0.107174
v -0.156691 -0.089566 0.139879
v -0.156691 0.142434 0.139879
v -0.141643 -0.089566 0.170012
v -0.141643 0.142434 0.170012
v -0.122761 -0.089566 0.197367
v -0.122761 0.142434 0.197367
v -0.100254 -0.089566 0.221739
v -0.100254 0.142434 0.221739
v -0.074330 -0.089566 0.242923
v -0.074330 0.142434 0.242923
v -0.045198 -0.089566 0.260716
v -0.045198 0.142434 0.260716
v -0.013066 -0.089566 0.274911
v -0.013066 0.142434 0.274911
v 0.021857 -0.089566 0.285304
v 0.021857 0.142434 0.285304
v 0.059364 -0.089566 0.291690
v 0.059364 0.142434 0.291690
v 0.099246 -0.089566 0.293864
v 0.099246 0.142434 0.293864
v 0.118634 -0.089566 0.293304
v 0.118634 0.142434 0.293304
v 0.138265 -0.089566 0.291632
v 0.138265 0.142434 0.291632
v 0.158090 -0.089566 0.288864
v 0.158090 0.142434 0.288864
v 0.178061 -0.089566 0.285012
v 0.178061 0.142434 0.285012
v 0.198129 -0.089566 0.280091
v 0.198129 0.142434 0.280091
v 0.218246 -0.089566 0.274114
v 0.218246 0.142434 0.274114
v 0.238363 -0.089566 0.267095
v 0.238363 0.142434 0.267095
v 0.258431 -0.089566 0.259049
v 0.258431 0.142434 0.259049
v 0.278402 -0.089566 0.249989
v 0.278402 0.142434 0.249989
v 0.298228 -0.089566 0.239929
v 0.298228 0.142434 0.239929
v 0.317858 -0.089566 0.228882
v 0.317858 0.142434 0.228882
v 0.337246 -0.089566 0.216864
v 0.337246 0.142434 0.216864
v 0.337246 -0.089566 0.323864
v 0.337246 0.142434 0.323864
v 0.320355 -0.089566 0.332397
v 0.320355 0.142434 0.332397
v 0.303117 -0.089566 0.340461
v 0.303117 0.142434 0.340461
v 0.285434 -0.089566 0.348004
v 0.285434 0.142434 0.348004
v 0.267209 -0.089566 0.354975
v 0.267209 0.142434 0.354975
v 0.248346 -0.089566 0.361320
v 0.248346 0.142434 0.361320
v 0.228746 -0.089566 0.366989
v 0.228746 0.142434 0.366989
v 0.208313 -0.089566 0.371928
v 0.208313 0.142434 0.371928
v 0.186950 -0.089566 0.376086
v 0.186950 0.142434 0.376086
v 0.164559 -0.089566 0.379411
v 0.164559 0.142434 0.379411
v 0.141042 -0.089566 0.381850
v 0.141042 0.142434 0.381850
v 0.116304 -0.089566 0.383352
v 0.116304 0.142434 0.383352
v 0.090246 -0.089566 0.383864
v 0.090246 0.142434 0.383864
v 0.029228 -0.089566 0.379905
v 0.029228 0.142434 0.379905
v -0.025902 -0.089566 0.368609
v -0.025902 0.142434 0.368609
v -0.075254 -0.089566 0.350848
v -0.075254 0.142434 0.350848
v -0.118939 -0.089566 0.327494
v -0.118939 0.142434 0.327494
v -0.157069 -0.089566 0.299417
v -0.157069 0.142434 0.299417
v -0.189754 -0.089566 0.267489
v -0.189754 0.142434 0.267489
v -0.217106 -0.089566 0.232582
v -0.217106 0.142434 0.232582
v -0.239235 -0.089566 0.195568
v -0.239235 0.142434 0.195568
v -0.256254 -0.089566 0.157317
v -0.256254 0.142434 0.157317
v -0.268272 -0.089566 0.118702
v -0.268272 0.142434 0.118702
v -0.275402 -0.089566 0.080594
v -0.275402 0.142434 0.080594
v -0.277754 -0.089566 0.043864
v -0.277754 0.142434 0.043864
v -0.274539 -0.089566 -0.006914
v -0.274539 0.142434 -0.006914
v -0.265120 -0.089566 -0.055025
v -0.265120 0.142434 -0.055025
v -0.249832 -0.089566 -0.100136
v -0.249832 0.142434 -0.100136
v -0.229013 -0.089566 -0.141914
v -0.229013 0.142434 -0.141914
v -0.203000 -0.089566 -0.180025
v -0.203000 0.142434 -0.180025
v -0.172129 -0.089566 -0.214136
v -0.172129 0.142434 -0.214136
v -0.136737 -0.089566 -0.243914
v -0.136737 0.142434 -0.243914
v -0.097161 -0.089566 -0.269025
v -0.097161 0.142434 -0.269025
v -0.053738 -0.089566 -0.289136
v -0.053738 0.142434 -0.289136
v -0.006805 -0.089566 -0.303914
v -0.006805 0.142434 -0.303914
v 0.043302 -0.089566 -0.313025
v 0.043302 0.142434 -0.313025
v 0.096246 -0.089566 -0.316136
v 0.096246 0.142434 -0.316136
v 0.113779 -0.089566 -0.315779
v 0.113779 0.142434 -0.315779
v 0.131427 -0.089566 -0.314696
v 0.131427 0.142434 -0.314696
v 0.149262 -0.089566 -0.312871
v 0.149262 0.142434 -0.312871
v 0.167357 -0.089566 -0.310284
v 0.167357 0.142434 -0.310284
v 0.185786 -0.089566 -0.306920
v 0.185786 0.142434 -0.306920
v 0.204621 -0.089566 -0.302761
v 0.204621 0.142434 -0.302761
v 0.223935 -0.089566 -0.297790
v 0.223935 0.142434 -0.297790
v 0.243802 -0.089566 -0.291988
v 0.243802 0.142434 -0.291988
v 0.264293 -0.089566 -0.285339
v 0.264293 0.142434 -0.285339
v 0.285482 -0.089566 -0.277826
v 0.285482 0.142434 -0.277826
v 0.307442 -0.089566 -0.269431
v 0.307442 0.142434 -0.269431
v 0.330246 -0.089566 -0.260136
v 0.330246 0.142434 -0.260136
v 0.330246 -0.089566 -0.155136
v 0.330246 0.142434 -0.155136
vn 0.0000 1.0000 -0.0000
vn 0.0000 -1.0000 0.0000
vn -0.4763 0.0000 0.8793
vn -0.4457 0.0000 0.8952
vn -0.4117 0.0000 0.9113
vn -0.3742 0.0000 0.9273
vn -0.3334 0.0000 0.9427
vn -0.2897 0.0000 0.9571
vn -0.2434 0.0000 0.9699
vn -0.1952 0.0000 0.9807
vn -0.1459 0.0000 0.9893
vn -0.0965 0.0000 0.9953
vn -0.0476 0.0000 0.9988
vn 0.0180 0.0000 0.9998
vn 0.1202 0.0000 0.9927
vn 0.2418 0.0000 0.9703
vn 0.3623 0.0000 0.9320
vn 0.4793 0.0000 0.8776
vn 0.5902 0.0000 0.8073
vn 0.6922 0.0000 0.7217
vn 0.7829 0.0000 0.6221
vn 0.8599 0.0000 0.5105
vn 0.9211 0.0000 0.3892
vn 0.9652 0.0000 0.2613
vn 0.9914 0.0000 0.1305
vn 1.0000 0.0000 0.0015
vn 0.9921 0.0000 -0.1256
vn 0.9670 0.0000 -0.2546
vn 0.9234 0.0000 -0.3838
vn 0.8609 0.0000 -0.5087
vn 0.7808 0.0000 -0.6248
vn 0.6854 0.0000 -0.7281
vn 0.5783 0.0000 -0.8158
vn 0.4637 0.0000 -0.8860
vn 0.3453 0.0000 -0.9384
vn 0.2269 0.0000 -0.9739
vn 0.1113 0.0000 -0.9938
vn 0.0128 0.0000 -0.9999
vn -0.0569 0.0000 -0.9984
vn -0.1116 0.0000 -0.9937
vn -0.1639 0.0000 -0.9864
vn -0.2138 0.0000 -0.9769
vn -0.2615 0.0000 -0.9652
vn -0.3072 0.0000 -0.9516
vn -0.3509 0.0000 -0.9364
vn -0.3927 0.0000 -0.9196
vn -0.4329 0.0000 -0.9014
vn -0.4715 0.0000 -0.8818
vn -0.5087 0.0000 -0.8609
vn 0.4864 0.0000 -0.8737
vn 0.8517 0.0000 0.5240
vn 0.4374 0.0000 0.8993
vn 0.4081 0.0000 0.9129
vn 0.3749 0.0000 0.9271
vn 0.3381 0.0000 0.9411
vn 0.2984 0.0000 0.9544
vn 0.2564 0.0000 0.9666
vn 0.2130 0.0000 0.9770
vn 0.1690 0.0000 0.9856
vn 0.1250 0.0000 0.9921
vn 0.0819 0.0000 0.9966
vn 0.0401 0.0000 0.9992
vn -0.0226 0.0000 0.9997
vn -0.1330 0.0000 0.9911
vn -0.2704 0.0000 0.9627
vn -0.4061 0.0000 0.9138
vn -0.5336 0.0000 0.8457
vn -0.6474 0.0000 0.7621
vn -0.7446 0.0000 0.6675
vn -0.8243 0.0000 0.5661
vn -0.8876 0.0000 0.4606
vn -0.9358 0.0000 0.3524
vn -0.9705 0.0000 0.2409
vn -0.9922 0.0000 0.1241
vn -1.0000 0.0000 0.0003
vn -0.9918 0.0000 -0.1279
vn -0.9664 0.0000 -0.2571
vn -0.9232 0.0000 -0.3844
vn -0.8625 0.0000 -0.5061
vn -0.7855 0.0000 -0.6188
vn -0.6942 0.0000 -0.7197
vn -0.5911 0.0000 -0.8066
vn -0.4790 0.0000 -0.8778
vn -0.3610 0.0000 -0.9325
vn -0.2401 0.0000 -0.9707
vn -0.1190 0.0000 -0.9929
vn -0.0192 0.0000 -0.9998
vn 0.0408 0.0000 -0.9991
vn 0.0815 0.0000 -0.9966
vn 0.1217 0.0000 -0.9926
vn 0.1606 0.0000 -0.9870
vn 0.1976 0.0000 -0.9803
vn 0.2325 0.0000 -0.9726
vn 0.2648 0.0000 -0.9643
vn 0.2945 0.0000 -0.9556
vn 0.3214 0.0000 -0.9469
vn 0.3457 0.0000 -0.9384
vn 0.3673 0.0000 -0.9301
vn 0.8299 0.0000 -0.5579
vn 0.5046 0.0000 0.8633
usemtl Material.001
s off
f 84//1 86//1 85//1
f 84//1 87//1 86//1
f 84//1 88//1 87//1
f 83//1 88//1 84//1
f 83//1 89//1 88//1
f 83//1 90//1 89//1
f 83//1 91//1 90//1
f 82//1 91//1 83//1
f 82//1 92//1 91//1
f 82//1 93//1 92//1
f 82//1 94//1 93//1
f 81//1 94//1 82//1
f 81//1 95//1 94//1
f 81//1 96//1 95//1
f 81//1 97//1 96//1
f 80//1 97//1 81//1
f 80//1 10//1 97//1
f 10//1 9//1 97//1
f 9//1 8//1 97//1
f 8//1 7//1 97//1
f 7//1 6//1 97//1
f 6//1 5//1 97//1
f 5//1 4//1 97//1
f 4//1 3//1 97//1
f 3//1 2//1 97//1
f 2//1 1//1 97//1
f 1//1 98//1 97//1
f 79//1 12//1 80//1
f 12//1 11//1 80//1
f 11//1 10//1 80//1
f 79//1 13//1 12//1
f 79//1 14//1 13//1
f 79//1 15//1 14//1
f 78//1 15//1 79//1
f 78//1 16//1 15//1
f 78//1 17//1 16//1
f 77//1 17//1 78//1
f 77//1 18//1 17//1
f 77//1 19//1 18//1
f 76//1 19//1 77//1
f 76//1 20//1 19//1
f 75//1 20//1 76//1
f 75//1 21//1 20//1
f 75//1 22//1 21//1
f 74//1 22//1 75//1
f 74//1 23//1 22//1
f 73//1 23//1 74//1
f 73//1 24//1 23//1
f 73//1 25//1 24//1
f 72//1 25//1 73//1
f 72//1 26//1 25//1
f 71//1 26//1 72//1
f 71//1 27//1 26//1
f 70//1 27//1 71//1
f 70//1 28//1 27//1
f 69//1 28//1 70//1
f 69//1 29//1 28//1
f 68//1 29//1 69//1
f 68//1 30//1 29//1
f 47//1 49//1 48//1
f 68//1 31//1 30//1
f 46//1 49//1 47//1
f 67//1 31//1 68//1
f 45//1 49//1 46//1
f 67//1 32//1 31//1
f 44//1 49//1 45//1
f 43//1 49//1 44//1
f 67//1 33//1 32//1
f 42//1 49//1 43//1
f 66//1 33//1 67//1
f 41//1 49//1 42//1
f 66//1 34//1 33//1
f 40//1 49//1 41//1
f 39//1 49//1 40//1
f 66//1 35//1 34//1
f 38//1 49//1 39//1
f 37//1 49//1 38//1
f 66//1 36//1 35//1
f 36//1 49//1 37//1
f 66//1 49//1 36//1
f 65//1 49//1 66//1
f 65//1 50//1 49//1
f 64//1 50//1 65//1
f 64//1 51//1 50//1
f 64//1 52//1 51//1
f 64//1 53//1 52//1
f 63//1 53//1 64//1
f 63//1 54//1 53//1
f 63//1 55//1 54//1
f 63//1 56//1 55//1
f 62//1 56//1 63//1
f 62//1 57//1 56//1
f 62//1 58//1 57//1
f 62//1 59//1 58//1
f 61//1 59//1 62//1
f 61//1 60//1 59//1
f 184//2 182//2 183//2
f 185//2 182//2 184//2
f 186//2 182//2 185//2
f 186//2 181//2 182//2
f 187//2 181//2 186//2
f 188//2 181//2 187//2
f 189//2 181//2 188//2
f 189//2 180//2 181//2
f 190//2 180//2 189//2
f 191//2 180//2 190//2
f 192//2 180//2 191//2
f 192//2 179//2 180//2
f 193//2 179//2 192//2
f 194//2 179//2 193//2
f 195//2 179//2 194//2
f 195//2 178//2 179//2
f 108//2 178//2 195//2
f 107//2 108//2 195//2
f 106//2 107//2 195//2
f 105//2 106//2 195//2
f 104//2 105//2 195//2
f 103//2 104//2 195//2
f 102//2 103//2 195//2
f 101//2 102//2 195//2
f 100//2 101//2 195//2
f 99//2 100//2 195//2
f 196//2 99//2 195//2
f 110//2 177//2 178//2
f 109//2 110//2 178//2
f 108//2 109//2 178//2
f 111//2 177//2 110//2
f 112//2 177//2 111//2
f 113//2 177//2 112//2
f 113//2 176//2 177//2
f 114//2 176//2 113//2
f 115//2 176//2 114//2
f 115//2 175//2 176//2
f 116//2 175//2 115//2
f 117//2 175//2 116//2
f 117//2 174//2 175//2
f 118//2 174//2 117//2
f 118//2 173//2 174//2
f 119//2 173//2 118//2
f 120//2 173//2 119//2
f 120//2 172//2 173//2
f 121//2 172//2 120//2
f 121//2 171//2 172//2
f 122//2 171//2 121//2
f 123//2 171//2 122//2
f 123//2 170//2 171//2
f 124//2 170//2 123//2
f 124//2 169//2 170//2
f 125//2 169//2 124//2
f 125//2 168//2 169//2
f 126//2 168//2 125//2
f 126//2 167//2 168//2
f 127//2 167//2 126//2
f 127//2 166//2 167//2
f 128//2 166//2 127//2
f 147//2 145//2 146//2
f 129//2 166//2 128//2
f 147//2 144//2 145//2
f 129//2 165//2 166//2
f 147//2 143//2 144//2
f 130//2 165//2 129//2
f 147//2 142//2 143//2
f 147//2 141//2 142//2
f 131//2 165//2 130//2
f 147//2 140//2 141//2
f 131//2 164//2 165//2
f 147//2 139//2 140//2
f 132//2 164//2 131//2
f 147//2 138//2 139//2
f 147//2 137//2 138//2
f 133//2 164//2 132//2
f 147//2 136//2 137//2
f 147//2 135//2 136//2
f 134//2 164//2 133//2
f 147//2 134//2 135//2
f 147//2 164//2 134//2
f 147//2 163//2 164//2
f 148//2 163//2 147//2
f 148//2 162//2 163//2
f 149//2 162//2 148//2
f 150//2 162//2 149//2
f 151//2 162//2 150//2
f 151//2 161//2 162//2
f 152//2 161//2 151//2
f 153//2 161//2 152//2
f 154//2 161//2 153//2
f 154//2 160//2 161//2
f 155//2 160//2 154//2
f 156//2 160//2 155//2
f 157//2 160//2 156//2
f 157//2 159//2 160//2
f 158//2 159//2 157//2
s 1
f 198//3 200//4 199//4 197//3
f 200//4 202//5 201//5 199//4
f 202//5 204//6 203//6 201//5
f 204//6 206//7 205//7 203//6
f 206//7 208//8 207//8 205//7
f 208//8 210//9 209//9 207//8
f 210//9 212//10 211//10 209//9
f 212//10 214//11 213//11 211//10
f 214//11 216//12 215//12 213//11
f 216//12 218//13 217//13 215//12
f 218//13 220//14 219//14 217//13
f 220//14 222//15 221//15 219//14
f 222//15 224//16 223//16 221//15
f 224//16 226//17 225//17 223//16
f 226//17 228//18 227//18 225//17
f 228//18 230//19 229//19 227//18
f 230//19 232//20 231//20 229//19
f 232//20 234//21 233//21 231//20
f 234//21 236//22 235//22 233//21
f 236//22 238//23 237//23 235//22
f 238//23 240//24 239//24 237//23
f 240//24 242//25 241//25 239//24
f 242//25 244//26 243//26 241//25
f 244//26 246//27 245//27 243//26
f 246//27 248//28 247//28 245//27
f 248//28 250//29 249//29 247//28
f 250//29 252//30 251//30 249//29
f 252//30 254//31 253//31 251//30
f 254//31 256//32 255//32 253//31
f 256//32 258//33 257//33 255//32
f 258//33 260//34 259//34 257//33
f 260//34 262//35 261//35 259//34
f 262//35 264//36 263//36 261//35
f 264//36 266//37 265//37 263//36
f 266//37 268//38 267//38 265//37
f 268//38 270//39 269//39 267//38
f 270//39 272//40 271//40 269//39
f 272//40 274//41 273//41 271//40
f 274//41 276//42 275//42 273//41
f 276//42 278//43 277//43 275//42
f 278//43 280//44 279//44 277//43
f 280//44 282//45 281//45 279//44
f 282//45 284//46 283//46 281//45
f 284//46 286//47 285//47 283//46
f 286//47 288//48 287//48 285//47
f 288//48 290//49 289//49 287//48
f 290//49 292//50 291//50 289//49
f 292//50 294//51 293//51 291//50
f 294//51 296//52 295//52 293//51
f 296//52 298//53 297//53 295//52
f 298//53 300//54 299//54 297//53
f 300//54 302//55 301//55 299//54
f 302//55 304//56 303//56 301//55
f 304//56 306//57 305//57 303//56
f 306//57 308//58 307//58 305//57
f 308//58 310//59 309//59 307//58
f 310//59 312//60 311//60 309//59
f 312//60 314//61 313//61 311//60
f 314//61 316//62 315//62 313//61
f 316//62 318//63 317//63 315//62
f 318//63 320//64 319//64 317//63
f 320//64 322//65 321//65 319//64
f 322//65 324//66 323//66 321//65
f 324//66 326//67 325//67 323//66
f 326//67 328//68 327//68 325//67
f 328//68 330//69 329//69 327//68
f 330//69 332//70 331//70 329//69
f 332//70 334//71 333//71 331//70
f 334//71 336//72 335//72 333//71
f 336//72 338//73 337//73 335//72
f 338//73 340//74 339//74 337//73
f 340//74 342//75 341//75 339//74
f 342//75 344//76 343//76 341//75
f 344//76 346//77 345//77 343//76
f 346//77 348//78 347//78 345//77
f 348//78 350//79 349//79 347//78
f 350//79 352//80 351//80 349//79
f 352//80 354//81 353//81 351//80
f 354//81 356//82 355//82 353//81
f 356//82 358//83 357//83 355//82
f 358//83 360//84 359//84 357//83
f 360//84 362//85 361//85 359//84
f 362//85 364//86 363//86 361//85
f 364//86 366//87 365//87 363//86
f 366//87 368//88 367//88 365//87
f 368//88 370//89 369//89 367//88
f 370//89 372//90 371//90 369//89
f 372//90 374//91 373//91 371//90
f 374//91 376//92 375//92 373//91
f 376//92 378//93 377//93 375//92
f 378//93 380//94 379//94 377//93
f 380//94 382//95 381//95 379//94
f 382//95 384//96 383//96 381//95
f 384//96 386//97 385//97 383//96
f 386//97 388//98 387//98 385//97
f 388//98 390//99 389//99 387//98
f 390//99 392//100 391//100 389//99
f 392//100 198//3 197//3 391//100
